<?xml version="1.0" encoding="utf-8"?>
<!-- Generator: Adobe Illustrator 27.5.0, SVG Export Plug-In . SVG Version: 6.00 Build 0)  -->
<svg version="1.1" id="Layer_1" xmlns="http://www.w3.org/2000/svg" xmlns:xlink="http://www.w3.org/1999/xlink" x="0px" y="0px"
	 viewBox="0 0 2122 2122" style="enable-background:new 0 0 2122 2122;" xml:space="preserve">
<g>
	<rect style="fill:#FFFFFF;" width="2121.32" height="2121.32"/>
	<g>
		<g>
			<g>
				<g>
					
						<rect x="858.409" y="180.284" transform="matrix(0.9671 -0.2543 0.2543 0.9671 -22.2066 225.321)" style="fill:#C4C4C4;" width="3.968" height="36.533"/>
				</g>
				<g>
					<path style="fill:#C4C4C4;" d="M935.938,493.725l-3.916-14.897l3.838-1.009l3.916,14.897L935.938,493.725z M927.629,462.113
						l-4.394-16.714l3.838-1.009l4.394,16.714L927.629,462.113z M918.842,428.689l-4.393-16.714l3.838-1.008l4.393,16.714
						L918.842,428.689z M910.053,395.262l-4.394-16.711l3.838-1.008l4.394,16.71L910.053,395.262z M901.266,361.838l-4.393-16.71
						l3.837-1.009l4.393,16.711L901.266,361.838z M892.48,328.414l-4.393-16.714l3.837-1.009l4.394,16.714L892.48,328.414z
						 M883.694,294.99l-4.394-16.714l3.838-1.008l4.393,16.714L883.694,294.99z"/>
				</g>
				<g>
					
						<rect x="948.607" y="523.402" transform="matrix(0.9671 -0.2542 0.2542 0.9671 -106.4731 259.4564)" style="fill:#C4C4C4;" width="3.968" height="36.533"/>
				</g>
			</g>
			<g>
				<g>
					<polygon style="fill:#C4C4C4;" points="538.548,403.275 512.84,377.325 515.655,374.53 541.363,400.48 					"/>
				</g>
				<g>
					<path style="fill:#C4C4C4;" d="M740.108,606.736l-10.841-10.943l2.815-2.795l10.842,10.944L740.108,606.736z M717.106,583.516
						l-12.164-12.276l2.819-2.795l12.16,12.276L717.106,583.516z M692.785,558.967l-12.16-12.276l2.815-2.795l12.16,12.276
						L692.785,558.967z M668.464,534.414l-12.16-12.273l2.815-2.794l12.16,12.273L668.464,534.414z M644.144,509.865l-12.161-12.273
						l2.815-2.794l12.161,12.273L644.144,509.865z M619.823,485.317L607.66,473.04l2.818-2.794l12.161,12.276L619.823,485.317z
						 M595.503,460.768l-12.161-12.276l2.815-2.794l12.161,12.276L595.503,460.768z"/>
				</g>
				<g>
					
						<rect x="774.781" y="622.663" transform="matrix(0.7104 -0.7038 0.7038 0.7104 -226.1343 732.2753)" style="fill:#C4C4C4;" width="3.967" height="36.528"/>
				</g>
			</g>
			<g>
				<g>
					
						<rect x="331.691" y="702.093" transform="matrix(0.2633 -0.9647 0.9647 0.2633 -449.1227 852.5865)" style="fill:#C4C4C4;" width="3.964" height="36.529"/>
				</g>
				<g>
					<path style="fill:#C4C4C4;" d="M627.076,802.515l-14.86-4.056l1.043-3.823l14.859,4.055L627.076,802.515z M595.543,793.906
						l-16.669-4.55l1.043-3.824l16.669,4.55L595.543,793.906z M562.204,784.806l-16.669-4.553l1.043-3.824l16.669,4.553
						L562.204,784.806z M528.866,775.703l-16.669-4.55l1.043-3.824l16.669,4.55L528.866,775.703z M495.527,766.599l-16.669-4.55
						l1.043-3.823l16.669,4.55L495.527,766.599z M462.185,757.5l-16.669-4.55l1.043-3.824l16.669,4.55L462.185,757.5z
						 M428.846,748.397l-16.669-4.55l1.043-3.824l16.669,4.551L428.846,748.397z"/>
				</g>
				<g>
					
						<rect x="673.936" y="795.531" transform="matrix(0.2633 -0.9647 0.9647 0.2633 -287.1306 1251.5935)" style="fill:#C4C4C4;" width="3.964" height="36.529"/>
				</g>
			</g>
			<g>
				<g>
					
						<rect x="313.612" y="1102.158" transform="matrix(0.9672 -0.2541 0.2541 0.9672 -269.7112 120.596)" style="fill:#C4C4C4;" width="36.533" height="3.968"/>
				</g>
				<g>
					<path style="fill:#C4C4C4;" d="M411.601,1085.234l-1.009-3.838l16.714-4.394l1.009,3.838L411.601,1085.234z M445.025,1076.447
						l-1.009-3.838l16.714-4.393l1.009,3.838L445.025,1076.447z M478.448,1067.661l-1.008-3.838l16.713-4.393l1.009,3.838
						L478.448,1067.661z M511.872,1058.875l-1.008-3.838l16.714-4.394l1.009,3.838L511.872,1058.875z M545.296,1050.088
						l-1.008-3.838l16.714-4.397l1.008,3.838L545.296,1050.088z M578.72,1041.299l-1.009-3.838l16.714-4.394l1.008,3.838
						L578.72,1041.299z M612.145,1032.512l-1.009-3.838l14.901-3.916l1.008,3.838L612.145,1032.512z"/>
				</g>
				<g>
					
						<rect x="656.719" y="1011.957" transform="matrix(0.9671 -0.2543 0.2543 0.9671 -235.6655 204.9933)" style="fill:#C4C4C4;" width="36.534" height="3.968"/>
				</g>
			</g>
			<g>
				<g>
					
						<rect x="503.94" y="1435.409" transform="matrix(0.7105 -0.7037 0.7037 0.7105 -860.2905 783.5557)" style="fill:#C4C4C4;" width="36.532" height="3.972"/>
				</g>
				<g>
					<path style="fill:#C4C4C4;" d="M581.788,1381.165l-2.795-2.819l12.276-12.16l2.795,2.815L581.788,1381.165z M606.34,1356.844
						l-2.795-2.815l12.276-12.161l2.795,2.815L606.34,1356.844z M630.889,1332.527l-2.794-2.815l12.276-12.164l2.795,2.818
						L630.889,1332.527z M655.442,1308.213l-2.795-2.819l12.276-12.16l2.795,2.815L655.442,1308.213z M679.994,1283.892
						l-2.795-2.815l12.276-12.16l2.795,2.815L679.994,1283.892z M704.543,1259.575l-2.794-2.815l12.276-12.164l2.795,2.818
						L704.543,1259.575z M729.096,1235.257l-2.795-2.822l10.947-10.842l2.795,2.823L729.096,1235.257z"/>
				</g>
				<g>
					
						<rect x="755.961" y="1185.767" transform="matrix(0.7105 -0.7037 0.7037 0.7105 -611.664 888.6069)" style="fill:#C4C4C4;" width="36.535" height="3.971"/>
				</g>
			</g>
			<g>
				<g>
					
						<rect x="835.396" y="1628.88" transform="matrix(0.2631 -0.9648 0.9648 0.2631 -944.3491 2025.3308)" style="fill:#C4C4C4;" width="36.529" height="3.964"/>
				</g>
				<g>
					<path style="fill:#C4C4C4;" d="M877.15,1552.365l-3.824-1.043l4.55-16.669l3.824,1.043L877.15,1552.365z M886.25,1519.026
						l-3.824-1.043l4.55-16.666l3.824,1.043L886.25,1519.026z M895.35,1485.69l-3.824-1.043l4.55-16.669l3.824,1.043L895.35,1485.69
						z M904.45,1452.352l-3.824-1.043l4.55-16.669l3.824,1.043L904.45,1452.352z M913.55,1419.016l-3.824-1.043l4.553-16.669
						l3.824,1.043L913.55,1419.016z M922.653,1385.677l-3.824-1.043l4.551-16.669l3.823,1.043L922.653,1385.677z M931.752,1352.339
						l-3.823-1.043l4.055-14.859l3.824,1.043L931.752,1352.339z"/>
				</g>
				<g>
					
						<rect x="928.825" y="1286.655" transform="matrix(0.2632 -0.9647 0.9647 0.2632 -545.368 1863.2089)" style="fill:#C4C4C4;" width="36.529" height="3.964"/>
				</g>
			</g>
			<g>
				<g>
					
						<rect x="1235.465" y="1614.362" transform="matrix(0.9671 -0.2543 0.2543 0.9671 -374.5438 368.4156)" style="fill:#C4C4C4;" width="3.968" height="36.53"/>
				</g>
				<g>
					<path style="fill:#C4C4C4;" d="M1214.703,1553.919l-4.393-16.71l3.838-1.009l4.393,16.711L1214.703,1553.919z
						 M1205.916,1520.501l-4.393-16.711l3.838-1.008l4.393,16.71L1205.916,1520.501z M1197.13,1487.081l-4.394-16.711l3.838-1.008
						l4.394,16.71L1197.13,1487.081z M1188.344,1453.664l-4.397-16.71l3.838-1.009l4.397,16.711L1188.344,1453.664z
						 M1179.554,1420.243l-4.394-16.707l3.838-1.009l4.393,16.707L1179.554,1420.243z M1170.768,1386.826l-4.393-16.71l3.838-1.009
						l4.393,16.71L1170.768,1386.826z M1161.981,1353.405l-3.916-14.893l3.838-1.009l3.916,14.894L1161.981,1353.405z"/>
				</g>
				<g>
					
						<rect x="1145.264" y="1271.302" transform="matrix(0.9671 -0.2543 0.2543 0.9671 -290.2199 334.1362)" style="fill:#C4C4C4;" width="3.968" height="36.534"/>
				</g>
			</g>
			<g>
				<g>
					
						<rect x="1568.739" y="1424.04" transform="matrix(0.7104 -0.7038 0.7038 0.7104 -560.2118 1523.1154)" style="fill:#C4C4C4;" width="3.967" height="36.528"/>
				</g>
				<g>
					<path style="fill:#C4C4C4;" d="M1511.667,1385.51l-12.164-12.276l2.819-2.795l12.16,12.276L1511.667,1385.51z
						 M1487.346,1360.961l-12.16-12.276l2.815-2.795l12.16,12.276L1487.346,1360.961z M1463.022,1336.409l-12.157-12.276
						l2.822-2.795l12.157,12.276L1463.022,1336.409z M1438.708,1311.86l-12.161-12.276l2.815-2.795l12.164,12.276L1438.708,1311.86z
						 M1414.387,1287.307l-12.16-12.273l2.815-2.794l12.16,12.273L1414.387,1287.307z M1390.067,1262.758l-12.16-12.276l2.815-2.795
						l12.164,12.276L1390.067,1262.758z M1365.746,1238.206l-10.842-10.944l2.815-2.795l10.842,10.944L1365.746,1238.206z"/>
				</g>
				<g>
					<polygon style="fill:#C4C4C4;" points="1332.506,1204.652 1306.798,1178.703 1309.613,1175.907 1335.321,1201.858 					"/>
				</g>
			</g>
			<g>
				<g>
					
						<rect x="1762.198" y="1092.566" transform="matrix(0.2633 -0.9647 0.9647 0.2633 228.0014 2520.2354)" style="fill:#C4C4C4;" width="3.964" height="36.526"/>
				</g>
				<g>
					<path style="fill:#C4C4C4;" d="M1684.635,1091.17l-16.669-4.55l1.043-3.824l16.669,4.55L1684.635,1091.17z M1651.296,1082.071
						l-16.669-4.55l1.043-3.824l16.669,4.55L1651.296,1082.071z M1617.958,1072.97l-16.669-4.55l1.043-3.824l16.669,4.55
						L1617.958,1072.97z M1584.615,1063.871l-16.669-4.55l1.043-3.824l16.669,4.55L1584.615,1063.871z M1551.277,1054.771
						l-16.669-4.553l1.043-3.824l16.669,4.553L1551.277,1054.771z M1517.938,1045.668l-16.669-4.55l1.043-3.824l16.669,4.55
						L1517.938,1045.668z M1484.599,1036.568l-14.863-4.056l1.043-3.824l14.863,4.056L1484.599,1036.568z"/>
				</g>
				<g>
					
						<rect x="1419.955" y="999.146" transform="matrix(0.2633 -0.9647 0.9647 0.2633 66.053 2121.3167)" style="fill:#C4C4C4;" width="3.964" height="36.529"/>
				</g>
			</g>
			<g>
				<g>
					
						<rect x="1747.696" y="725.074" transform="matrix(0.9671 -0.2543 0.2543 0.9671 -126.8388 473.0094)" style="fill:#C4C4C4;" width="36.53" height="3.968"/>
				</g>
				<g>
					<path style="fill:#C4C4C4;" d="M1471.795,806.462l-1.009-3.838l14.904-3.919l1.009,3.838L1471.795,806.462z M1503.412,798.149
						l-1.008-3.837l16.714-4.397l1.008,3.837L1503.412,798.149z M1536.836,789.359l-1.009-3.838l16.714-4.393l1.008,3.838
						L1536.836,789.359z M1570.26,780.57l-1.009-3.838l16.714-4.394l1.008,3.838L1570.26,780.57z M1603.684,771.784l-1.009-3.838
						l16.714-4.397l1.009,3.838L1603.684,771.784z M1637.108,762.994l-1.009-3.838l16.714-4.393l1.009,3.837L1637.108,762.994z
						 M1670.532,754.205l-1.009-3.838l16.714-4.394l1.009,3.838L1670.532,754.205z"/>
				</g>
				<g>
					
						<rect x="1404.585" y="815.296" transform="matrix(0.9671 -0.2543 0.2543 0.9671 -161.0639 388.7189)" style="fill:#C4C4C4;" width="36.534" height="3.968"/>
				</g>
			</g>
			<g>
				<g>
					<polygon style="fill:#C4C4C4;" points="1564.03,408.073 1561.235,405.258 1587.189,379.551 1589.983,382.366 					"/>
				</g>
				<g>
					<path style="fill:#C4C4C4;" d="M1360.576,609.64l-2.795-2.815l10.947-10.845l2.795,2.815L1360.576,609.64z M1383.795,586.635
						l-2.795-2.815l12.276-12.161l2.795,2.815L1383.795,586.635z M1408.345,562.317l-2.795-2.818l12.276-12.161l2.795,2.815
						L1408.345,562.317z M1432.894,537.993l-2.794-2.815l12.276-12.161l2.794,2.815L1432.894,537.993z M1457.443,513.669
						l-2.794-2.815l12.276-12.16l2.795,2.815L1457.443,513.669z M1481.992,489.348l-2.795-2.815l12.276-12.164l2.795,2.819
						L1481.992,489.348z M1506.541,465.028l-2.795-2.815l12.276-12.161l2.795,2.815L1506.541,465.028z"/>
				</g>
				<g>
					<polygon style="fill:#C4C4C4;" points="1312.016,657.743 1309.222,654.927 1335.172,629.22 1337.966,632.035 					"/>
				</g>
			</g>
			<g>
				<g>
					
						<rect x="1225.885" y="198.363" transform="matrix(0.2631 -0.9648 0.9648 0.2631 723.5034 1347.9401)" style="fill:#C4C4C4;" width="36.529" height="3.964"/>
				</g>
				<g>
					<path style="fill:#C4C4C4;" d="M1165.812,494.805l-3.823-1.042l4.059-14.867l3.823,1.043L1165.812,494.805z M1174.421,463.269
						l-3.823-1.043l4.553-16.673l3.823,1.043L1174.421,463.269z M1183.524,429.927l-3.823-1.043l4.55-16.669l3.823,1.043
						L1183.524,429.927z M1192.628,396.585l-3.824-1.043l4.55-16.669l3.823,1.043L1192.628,396.585z M1201.728,363.246l-3.824-1.043
						l4.553-16.672l3.823,1.042L1201.728,363.246z M1210.831,329.904l-3.824-1.043l4.55-16.669l3.824,1.043L1210.831,329.904z
						 M1219.934,296.562l-3.824-1.043l4.55-16.669l3.824,1.042L1219.934,296.562z"/>
				</g>
				<g>
					
						<rect x="1132.443" y="540.622" transform="matrix(0.2631 -0.9648 0.9648 0.2631 324.4426 1509.9891)" style="fill:#C4C4C4;" width="36.529" height="3.964"/>
				</g>
			</g>
		</g>
		<g>
			<g>
				<g>
					
						<rect x="1284.85" y="384.826" transform="matrix(0.5033 -0.8641 0.8641 0.5033 340.2786 1365.5693)" style="fill:#C4C4C4;" width="146.125" height="3.968"/>
				</g>
				<g>
					
						<rect x="1180.557" y="563.53" transform="matrix(0.5034 -0.8641 0.8641 0.5034 133.9257 1364.0468)" style="fill:#C4C4C4;" width="146.127" height="3.968"/>
				</g>
			</g>
			<g>
				<g>
					
						<rect x="979.078" y="301.338" transform="matrix(0.005 -1 1 0.005 743.5457 1353.9283)" style="fill:#C4C4C4;" width="146.127" height="3.967"/>
				</g>
				<g>
					
						<rect x="978.1" y="508.245" transform="matrix(0.005 -1 1 0.005 535.6684 1558.8192)" style="fill:#C4C4C4;" width="146.127" height="3.967"/>
				</g>
			</g>
			<g>
				<g>
					
						<rect x="743.612" y="310.877" transform="matrix(0.8684 -0.4959 0.4959 0.8684 -92.2592 420.287)" style="fill:#C4C4C4;" width="3.966" height="146.124"/>
				</g>
				<g>
					
						<rect x="846.215" y="490.552" transform="matrix(0.8684 -0.4959 0.4959 0.8684 -167.8575 494.8239)" style="fill:#C4C4C4;" width="3.966" height="146.124"/>
				</g>
			</g>
			<g>
				<g>
					
						<rect x="518.46" y="533.944" transform="matrix(0.5041 -0.8636 0.8636 0.5041 -266.1521 750.4944)" style="fill:#C4C4C4;" width="3.968" height="146.13"/>
				</g>
				<g>
					
						<rect x="697.12" y="638.224" transform="matrix(0.5041 -0.8636 0.8636 0.5041 -267.6157 956.505)" style="fill:#C4C4C4;" width="3.968" height="146.13"/>
				</g>
			</g>
			<g>
				<g>
					
						<rect x="434.993" y="839.718" transform="matrix(0.0047 -1 1 0.0047 -477.8433 1345.474)" style="fill:#C4C4C4;" width="3.967" height="146.127"/>
				</g>
				<g>
					
						<rect x="641.865" y="840.696" transform="matrix(0.0047 -1 1 0.0047 -272.9187 1553.3179)" style="fill:#C4C4C4;" width="3.967" height="146.127"/>
				</g>
			</g>
			<g>
				<g>
					
						<rect x="444.497" y="1217.342" transform="matrix(0.8679 -0.4967 0.4967 0.8679 -537.2538 418.0821)" style="fill:#C4C4C4;" width="146.123" height="3.966"/>
				</g>
				<g>
					<polygon style="fill:#C4C4C4;" points="634.775,1154.668 632.805,1151.226 759.694,1078.761 761.664,1082.203 					"/>
				</g>
			</g>
			<g>
				<g>
					
						<rect x="667.582" y="1442.507" transform="matrix(0.5033 -0.8641 0.8641 0.5033 -880.3257 1357.527)" style="fill:#C4C4C4;" width="146.126" height="3.968"/>
				</g>
				<g>
					
						<rect x="771.865" y="1263.838" transform="matrix(0.5033 -0.8641 0.8641 0.5033 -674.1324 1358.8933)" style="fill:#C4C4C4;" width="146.13" height="3.968"/>
				</g>
			</g>
			<g>
				<g>
					
						<rect x="973.359" y="1525.98" transform="matrix(0.0052 -1 1 0.0052 -486.9541 2566.4377)" style="fill:#C4C4C4;" width="146.127" height="3.967"/>
				</g>
				<g>
					
						<rect x="974.33" y="1319.087" transform="matrix(0.0052 -1 1 0.0052 -279.0975 2361.5906)" style="fill:#C4C4C4;" width="146.127" height="3.967"/>
				</g>
			</g>
			<g>
				<g>
					
						<rect x="1350.975" y="1374.295" transform="matrix(0.8684 -0.4959 0.4959 0.8684 -539.6746 861.457)" style="fill:#C4C4C4;" width="3.966" height="146.124"/>
				</g>
				<g>
					
						<rect x="1248.359" y="1194.623" transform="matrix(0.8684 -0.4959 0.4959 0.8684 -464.0815 786.9228)" style="fill:#C4C4C4;" width="3.966" height="146.124"/>
				</g>
			</g>
			<g>
				<g>
					
						<rect x="1576.125" y="1151.223" transform="matrix(0.504 -0.8637 0.8637 0.504 -274.7188 1970.1613)" style="fill:#C4C4C4;" width="3.968" height="146.125"/>
				</g>
				<g>
					
						<rect x="1397.436" y="1046.948" transform="matrix(0.5041 -0.8637 0.8637 0.5041 -273.2857 1764.0986)" style="fill:#C4C4C4;" width="3.968" height="146.122"/>
				</g>
			</g>
			<g>
				<g>
					
						<rect x="1659.594" y="845.447" transform="matrix(0.0047 -1 1 0.0047 735.2879 2575.7637)" style="fill:#C4C4C4;" width="3.967" height="146.127"/>
				</g>
				<g>
					
						<rect x="1452.704" y="844.486" transform="matrix(0.0047 -1 1 0.0047 530.3217 2367.9153)" style="fill:#C4C4C4;" width="3.967" height="146.127"/>
				</g>
			</g>
			<g>
				<g>
					
						<rect x="1507.917" y="609.988" transform="matrix(0.8679 -0.4967 0.4967 0.8679 -95.1656 866.0233)" style="fill:#C4C4C4;" width="146.124" height="3.966"/>
				</g>
				<g>
					
						<rect x="1328.269" y="712.591" transform="matrix(0.8679 -0.4967 0.4967 0.8679 -169.8426 790.4521)" style="fill:#C4C4C4;" width="146.127" height="3.966"/>
				</g>
			</g>
		</g>
	</g>
	<g>
		<g>
			<path style="fill:#00356A;" d="M752.582,1886.154c1.36,1.791,2.043,3.949,2.043,6.481c0,3.697-1.482,6.552-4.46,8.566
				c-2.978,2.007-7.28,3.014-12.905,3.014h-22.787v-42.208h21.579c5.387,0,9.494,0.992,12.3,2.985
				c2.82,1.986,4.229,4.668,4.229,8.049c0,2.007-0.496,3.805-1.482,5.395c-0.986,1.589-2.381,2.842-4.186,3.769
				C749.317,1883.047,751.215,1884.363,752.582,1886.154z M726.284,1870.625v8.142h8.2c4.021,0,6.027-1.366,6.027-4.1
				c0-2.69-2.006-4.042-6.027-4.042H726.284z M742.569,1891.312c0-2.856-2.093-4.28-6.272-4.28h-10.013v8.56h10.013
				C740.476,1895.591,742.569,1894.167,742.569,1891.312z"/>
			<path style="fill:#00356A;" d="M807.811,1896.016h-17.854l-3.309,8.2h-12.185l18.63-42.208h11.761l18.695,42.208h-12.422
				L807.811,1896.016z M804.314,1887.211l-5.431-13.509l-5.423,13.509H804.314z"/>
			<path style="fill:#00356A;" d="M854.148,1902.252c-3.518-1.87-6.28-4.466-8.286-7.805c-2.015-3.337-3.021-7.114-3.021-11.336
				c0-4.223,1.007-7.999,3.021-11.336c2.006-3.337,4.768-5.941,8.286-7.811c3.524-1.87,7.488-2.806,11.912-2.806
				c3.855,0,7.337,0.683,10.43,2.05c3.093,1.367,5.668,3.338,7.718,5.913l-7.596,6.877c-2.733-3.302-6.049-4.949-9.948-4.949
				c-2.294,0-4.33,0.503-6.122,1.511c-1.791,1-3.172,2.417-4.164,4.251c-0.978,1.827-1.475,3.927-1.475,6.301
				c0,2.374,0.497,4.474,1.475,6.302c0.993,1.827,2.374,3.244,4.164,4.251c1.791,1,3.827,1.503,6.122,1.503
				c3.899,0,7.215-1.647,9.948-4.942l7.596,6.877c-2.05,2.568-4.625,4.539-7.718,5.906c-3.093,1.366-6.575,2.05-10.43,2.05
				C861.636,1905.058,857.673,1904.122,854.148,1902.252z"/>
			<path style="fill:#00356A;" d="M924.482,1888.894l-4.46,4.769v10.552h-11.811v-42.208h11.811v17.544l16.343-17.544h13.149
				l-17.249,18.688l18.156,23.521h-13.868L924.482,1888.894z"/>
			<path style="fill:#00356A;" d="M999.016,1882.205h10.56v17.487c-2.417,1.726-5.193,3.057-8.329,3.978
				c-3.136,0.928-6.273,1.388-9.402,1.388c-4.424,0-8.409-0.935-11.94-2.806c-3.539-1.87-6.308-4.466-8.323-7.805
				c-2.014-3.337-3.013-7.114-3.013-11.336c0-4.223,1-7.999,3.013-11.336c2.015-3.337,4.805-5.941,8.387-7.811
				c3.568-1.87,7.61-2.806,12.113-2.806c3.942,0,7.481,0.669,10.617,1.992c3.136,1.324,5.747,3.237,7.841,5.726l-7.596,6.877
				c-2.862-3.136-6.272-4.704-10.257-4.704c-3.618,0-6.532,1.093-8.747,3.287c-2.208,2.194-3.309,5.114-3.309,8.775
				c0,2.331,0.504,4.409,1.503,6.237c1.008,1.834,2.41,3.258,4.223,4.287c1.813,1.022,3.877,1.532,6.214,1.532
				c2.288,0,4.439-0.46,6.445-1.381V1882.205z"/>
			<path style="fill:#00356A;" d="M1054.317,1893.002h-6.517v11.214h-11.941v-42.208h19.299c3.82,0,7.136,0.633,9.948,1.899
				c2.812,1.265,4.985,3.071,6.517,5.423c1.525,2.352,2.287,5.114,2.287,8.294c0,3.057-0.719,5.718-2.143,7.991
				c-1.424,2.266-3.467,4.05-6.114,5.337l9.106,13.264h-12.789L1054.317,1893.002z M1059.985,1873.041
				c-1.251-1.087-3.1-1.633-5.553-1.633h-6.632v12.365h6.632c2.453,0,4.302-0.532,5.553-1.597c1.237-1.064,1.87-2.582,1.87-4.553
				C1061.855,1875.652,1061.222,1874.128,1059.985,1873.041z"/>
			<path style="fill:#00356A;" d="M1108.43,1902.223c-3.561-1.891-6.351-4.503-8.38-7.84c-2.028-3.331-3.049-7.093-3.049-11.272
				c0-4.179,1.021-7.941,3.049-11.279c2.029-3.337,4.819-5.948,8.38-7.84c3.561-1.885,7.568-2.834,12.034-2.834
				c4.46,0,8.474,0.949,12.027,2.834c3.554,1.891,6.352,4.503,8.38,7.84c2.029,3.338,3.043,7.1,3.043,11.279
				c0,4.179-1.014,7.941-3.043,11.272c-2.028,3.337-4.826,5.948-8.38,7.84c-3.553,1.891-7.567,2.834-12.027,2.834
				C1115.997,1905.058,1111.99,1904.115,1108.43,1902.223z M1126.247,1893.664c1.726-1.007,3.093-2.424,4.1-4.251
				c1.007-1.828,1.511-3.927,1.511-6.302c0-2.374-0.504-4.474-1.511-6.301c-1.007-1.834-2.373-3.251-4.1-4.251
				c-1.727-1.008-3.654-1.511-5.784-1.511c-2.136,0-4.064,0.503-5.797,1.511c-1.727,1-3.093,2.417-4.1,4.251
				c-1,1.827-1.503,3.927-1.503,6.301c0,2.374,0.503,4.474,1.503,6.302c1.007,1.827,2.373,3.244,4.1,4.251
				c1.734,1,3.661,1.503,5.797,1.503C1122.593,1895.167,1124.521,1894.663,1126.247,1893.664z"/>
			<path style="fill:#00356A;" d="M1173.735,1899.936c-3.481-3.417-5.222-8.265-5.222-14.538v-23.391h11.941v23.032
				c0,6.754,2.675,10.128,8.027,10.128c5.301,0,7.956-3.374,7.956-10.128v-23.032h11.753v23.391c0,6.273-1.74,11.121-5.208,14.538
				c-3.481,3.416-8.358,5.121-14.63,5.121C1182.08,1905.058,1177.21,1903.353,1173.735,1899.936z"/>
			<path style="fill:#00356A;" d="M1275.129,1862.007v42.208h-9.833l-18.637-22.493v22.493h-11.696v-42.208h9.826l18.637,22.493
				v-22.493H1275.129z"/>
			<path style="fill:#00356A;" d="M1302.262,1862.007h19.953c4.626,0,8.725,0.863,12.301,2.589c3.582,1.734,6.359,4.179,8.329,7.358
				c1.971,3.172,2.949,6.891,2.949,11.157c0,4.258-0.978,7.977-2.949,11.156c-1.97,3.172-4.747,5.625-8.329,7.352
				c-3.575,1.733-7.675,2.596-12.301,2.596h-19.953V1862.007z M1321.74,1894.685c3.611,0,6.517-1.022,8.711-3.072
				c2.194-2.05,3.287-4.884,3.287-8.502c0-3.618-1.093-6.452-3.287-8.502c-2.193-2.05-5.1-3.079-8.711-3.079h-7.538v23.155H1321.74z
				"/>
		</g>
		<rect x="632.584" y="1649.285" style="fill:#00CED4;" width="797.702" height="183.8"/>
		<g>
			<path style="fill:#FFFFFF;" d="M746.612,1768.281c-1.05,1.374-2.158,2.669-3.331,3.877c-1.173,1.215-2.409,2.345-3.697,3.395
				l5.085,9.934c0.403,0.885,0.201,1.532-0.604,1.935l-16.962,8.725c-0.079,0.08-0.281,0.122-0.604,0.122h-0.482
				c-0.41-0.086-0.647-0.323-0.727-0.726l-6.905-13.207c-4.848-0.245-9.43-1.575-13.753-3.999
				c-4.315-2.424-8.099-5.769-11.322-10.056c-3.15-4.115-5.553-8.761-7.207-13.926c-1.654-5.172-2.489-10.581-2.489-16.235
				c0-5.733,0.835-11.185,2.489-16.357c1.654-5.165,4.057-9.811,7.207-13.926c3.396-4.525,7.409-7.999,12.056-10.423
				c4.639-2.424,9.509-3.632,14.594-3.632c5.085,0,9.948,1.208,14.594,3.632c4.647,2.424,8.661,5.898,12.056,10.423
				c3.15,4.115,5.553,8.761,7.207,13.926c1.654,5.172,2.482,10.624,2.482,16.357c0,5.654-0.827,11.063-2.482,16.235
				C752.165,1759.52,749.762,1764.167,746.612,1768.281z M710.028,1722.131c-1.453,2.101-2.561,4.539-3.338,7.33
				c-0.762,2.784-1.151,5.675-1.151,8.661c0,2.906,0.388,5.755,1.151,8.538c0.777,2.784,1.885,5.272,3.338,7.452
				c1.366,2.101,2.906,3.698,4.604,4.783c1.697,1.094,3.467,1.633,5.33,1.633c3.79,0,7.143-2.136,10.049-6.416
				c1.381-2.18,2.467-4.668,3.28-7.452c0.805-2.783,1.208-5.633,1.208-8.538c0-2.985-0.403-5.876-1.208-8.661
				c-0.813-2.791-1.899-5.229-3.28-7.33c-2.82-4.28-6.172-6.424-10.049-6.424c-1.863,0-3.633,0.547-5.33,1.64
				C712.934,1718.434,711.394,1720.031,710.028,1722.131z"/>
			<path style="fill:#FFFFFF;" d="M848.487,1696.689v55.969v0.36c-0.165,3.876-1.028,7.595-2.604,11.149
				c-1.576,3.554-3.776,6.74-6.603,9.567c-2.827,2.827-6.056,4.97-9.689,6.423c-3.64,1.453-7.474,2.179-11.509,2.179
				c-3.956,0-7.776-0.726-11.451-2.179c-3.668-1.453-6.92-3.596-9.754-6.423c-2.82-2.827-5.006-6.013-6.539-9.567
				c-1.532-3.553-2.381-7.272-2.539-11.149v-0.36v-55.969c0-0.971,0.482-1.453,1.453-1.453h17.077h1.942
				c0.964,0,1.453,0.482,1.453,1.453v37.555v18.17c0,2.179,0.821,4.043,2.482,5.575c1.654,1.532,3.654,2.302,5.992,2.302
				c2.345,0,4.323-0.77,5.942-2.302c1.611-1.532,2.417-3.396,2.417-5.575v-18.17v-37.555c0-0.403,0.144-0.748,0.432-1.028
				c0.281-0.281,0.619-0.425,1.028-0.425h1.935h17.084C848.005,1695.235,848.487,1695.718,848.487,1696.689z"/>
			<path style="fill:#FFFFFF;" d="M901.665,1717.16v10.905h19.263c0.971,0,1.453,0.446,1.453,1.33v19.141
				c0,0.892-0.482,1.33-1.453,1.33h-19.263v9.207h26.291c0.403,0,0.741,0.144,1.028,0.425c0.288,0.287,0.424,0.625,0.424,1.028
				v19.018c0,0.972-0.482,1.461-1.453,1.461h-46.64c-0.402,0-0.748-0.144-1.028-0.424c-0.288-0.288-0.424-0.626-0.424-1.036v-19.018
				v-11.991v-19.141v-13.688v-19.018c0-0.885,0.482-1.33,1.453-1.33h19.019h27.621c0.971,0,1.453,0.446,1.453,1.33v19.018
				c0,0.971-0.482,1.453-1.453,1.453H901.665z"/>
			<path style="fill:#FFFFFF;" d="M1013,1733.15c6.373,5.172,9.567,12.078,9.567,20.716c0,3.877-0.806,7.531-2.424,10.962
				c-1.618,3.438-3.798,6.466-6.539,9.085c-2.747,2.625-5.941,4.69-9.574,6.179c-3.633,1.496-7.509,2.244-11.631,2.244
				c-4.115,0-8.013-0.726-11.681-2.179c-3.683-1.453-6.891-3.431-9.639-5.941c-2.748-2.496-4.906-5.423-6.474-8.776
				c-1.583-3.352-2.367-6.927-2.367-10.725c0-0.885,0.482-1.33,1.453-1.33h19.019c0.403,0,0.748,0.122,1.028,0.359
				c0.288,0.245,0.424,0.569,0.424,0.971c0,1.619,0.827,2.993,2.482,4.122c1.654,1.129,3.582,1.69,5.754,1.69
				c2.345,0,4.302-0.726,5.877-2.18c1.575-1.453,2.366-2.942,2.366-4.481c0-0.561-0.064-1.151-0.186-1.755
				c-0.116-0.604-0.525-1.208-1.209-1.819c-0.691-0.605-1.777-1.23-3.266-1.878c-1.496-0.64-3.625-1.331-6.365-2.057
				c-7.43-1.935-13.199-4.481-17.321-7.632c-6.703-5.085-10.056-11.754-10.056-19.989c0-3.633,0.885-7.042,2.669-10.236
				c1.769-3.186,4.273-5.956,7.509-8.293c2.741-1.943,5.826-3.438,9.265-4.489c3.431-1.043,7.006-1.575,10.718-1.575
				c3.309,0,6.524,0.489,9.639,1.461c3.108,0.964,5.927,2.316,8.474,4.056c2.546,1.734,4.747,3.813,6.603,6.236
				c1.855,2.424,3.265,5.085,4.243,7.999c0.238,0.885-0.043,1.453-0.849,1.69l-18.17,5.82c-0.165,0.079-0.331,0.122-0.489,0.122
				c-0.647,0-1.093-0.324-1.331-0.972c-0.482-1.453-1.561-2.56-3.215-3.33c-1.654-0.77-3.287-1.151-4.906-1.151
				c-2.503,0-4.438,0.381-5.812,1.151c-1.374,0.77-2.18,1.352-2.424,1.755c0,0.245,0.101,0.59,0.309,1.028
				c0.195,0.446,0.662,0.928,1.388,1.453s1.82,1.115,3.273,1.755c1.453,0.647,3.467,1.295,6.057,1.942
				c2.906,0.806,5.913,1.813,9.02,3.029C1007.317,1729.395,1010.252,1731.057,1013,1733.15z"/>
			<path style="fill:#FFFFFF;" d="M1120.45,1696.689v19.018c0,0.41-0.13,0.748-0.374,1.029c-0.237,0.288-0.561,0.424-0.964,0.424
				h-20.831v62.385c0,0.892-0.446,1.338-1.338,1.338h-19.141c-0.885,0-1.33-0.446-1.33-1.338v-62.385h-20.716
				c-0.403,0-0.748-0.136-1.029-0.424c-0.281-0.281-0.424-0.619-0.424-1.029v-19.018c0-0.971,0.489-1.453,1.453-1.453h22.046h19.141
				h22.169C1120.003,1695.235,1120.45,1695.718,1120.45,1696.689z"/>
			<path style="fill:#FFFFFF;" d="M1176.656,1696.689v82.857c0,0.41-0.129,0.748-0.367,1.036c-0.245,0.28-0.568,0.424-0.971,0.424
				H1156.3c-0.403,0-0.748-0.144-1.029-0.424c-0.281-0.288-0.424-0.626-0.424-1.036v-82.857c0-0.885,0.489-1.33,1.453-1.33h19.018
				C1176.21,1695.359,1176.656,1695.804,1176.656,1696.689z"/>
			<path style="fill:#FFFFFF;" d="M1273.561,1707.838c3.15,4.115,5.553,8.761,7.207,13.926c1.654,5.172,2.489,10.624,2.489,16.357
				c0,5.654-0.835,11.063-2.489,16.235c-1.654,5.165-4.057,9.811-7.207,13.926c-3.388,4.525-7.409,7.999-12.055,10.423
				c-4.64,2.417-9.51,3.632-14.588,3.632c-5.093,0-9.955-1.215-14.602-3.632c-4.647-2.424-8.661-5.899-12.055-10.423
				c-3.151-4.115-5.554-8.761-7.208-13.926c-1.654-5.172-2.482-10.581-2.482-16.235c0-5.733,0.827-11.185,2.482-16.357
				c1.654-5.165,4.057-9.811,7.208-13.926c3.395-4.525,7.408-7.999,12.055-10.423c4.646-2.424,9.509-3.632,14.602-3.632
				c5.078,0,9.948,1.208,14.588,3.632C1266.152,1699.839,1270.173,1703.313,1273.561,1707.838z M1256.966,1754.111
				c1.374-2.18,2.468-4.668,3.273-7.452c0.806-2.783,1.208-5.633,1.208-8.538c0-2.985-0.402-5.876-1.208-8.661
				c-0.806-2.791-1.899-5.229-3.273-7.33c-2.826-4.28-6.178-6.424-10.048-6.424c-1.863,0-3.639,0.547-5.337,1.64
				c-1.698,1.086-3.23,2.683-4.604,4.783c-1.453,2.101-2.561,4.539-3.331,7.33c-0.77,2.784-1.151,5.675-1.151,8.661
				c0,2.906,0.381,5.755,1.151,8.538c0.77,2.784,1.878,5.272,3.331,7.452c1.374,2.101,2.906,3.698,4.604,4.783
				c1.698,1.094,3.474,1.633,5.337,1.633C1250.708,1760.527,1254.061,1758.391,1256.966,1754.111z"/>
			<path style="fill:#FFFFFF;" d="M1375.745,1695.661c0.281,0.281,0.418,0.625,0.418,1.028v82.857c0,0.41-0.137,0.734-0.418,0.972
				c-0.287,0.245-0.633,0.367-1.036,0.367h-19.018c-0.647,0-1.086-0.281-1.331-0.849l-15.386-34.282v33.793
				c0,0.892-0.446,1.338-1.33,1.338h-19.019c-0.971,0-1.453-0.446-1.453-1.338v-82.857c0-0.971,0.482-1.453,1.453-1.453h19.019
				c0.482,0,0.885,0.288,1.215,0.849l15.379,34.282v-33.678c0-0.971,0.489-1.453,1.453-1.453h19.018
				C1375.113,1695.235,1375.458,1695.38,1375.745,1695.661z"/>
		</g>
	</g>
	<g>
		<g>
			<path style="fill:#FFAF00;" d="M548.367,683.576c368.234-313.628,849.509,84.52,435.182,401.955
				c-180.937,138.736,66.065,178.625-238.99,181.086c-16.713-115.343-29.167-149.28-3.71-190.006
				c46.251-73.994,130.005-90.743,175.601-171.508c51.379-91.004-21.41-191.865-157.512-148.515
				C614.556,802.668,664.622,859.111,548.367,683.576z"/>
			<path style="fill:#FFAF00;" d="M724.341,1431.792c-1.16-143.775,221.26-144.393,222.41-1.794
				C947.905,1573.018,725.504,1576.004,724.341,1431.792z"/>
		</g>
		<g>
			<path style="fill:#FF7F23;" d="M657.6,638.002c390.104-317.626,881.357,107.443,443.238,427.965
				c-191.33,140.089,64.58,187.252-252.667,182.786c-14.722-120.316-26.89-155.891,0.517-197.651
				c49.794-75.872,137.267-91.359,186.536-174.287c55.518-93.441-17.844-199.991-160.358-158.049
				C723.68,763.355,774.438,823.196,657.6,638.002z"/>
			<path style="fill:#FF7F23;" d="M823.346,1420.033c2.104-149.521,233.386-145.042,231.299,3.256
				C1052.551,1572.025,821.235,1570.009,823.346,1420.033z"/>
		</g>
		<g>
			<path style="fill:#F0004C;" d="M799.546,599.543c398.784-327.088,904.012,106.904,456.012,437.138
				c-195.645,144.333,66.901,191.742-258.374,188.335c-15.537-123.3-28.144-159.728-0.199-202.644
				c50.772-77.973,140.396-94.173,190.604-179.378c56.576-96.005-19.033-204.976-164.991-161.449
				C867.758,727.818,920.019,788.983,799.546,599.543z"/>
			<path style="fill:#F0004C;" d="M972.365,1400.713c1.606-153.304,238.745-149.566,237.153,2.484
				C1207.92,1555.698,970.754,1554.485,972.365,1400.713z"/>
		</g>
		<g>
			<path style="fill:#00CED4;" d="M918.623,564.183c428.537-287.002,889.443,193.799,411.615,479.175
				c-208.681,124.743,48.052,197.312-275.37,162.475c-3.545-124.225-12.571-161.701,19.392-201.715
				c58.072-72.699,148.842-80.159,207.052-160.11c65.592-90.087,0.873-205.856-148.609-176.644
				C974.114,698.452,1020.217,764.383,918.623,564.183z"/>
			<path style="fill:#00CED4;" d="M1013.179,1378.308c16.419-152.432,252.086-125.786,235.801,25.399
				C1232.647,1555.339,996.709,1531.204,1013.179,1378.308z"/>
		</g>
	</g>
</g>
</svg>
